<svg width="308" height="53" viewBox="0 0 308 53" fill="none" xmlns="http://www.w3.org/2000/svg">
<path d="M4.936 11.232C3.82667 11.232 2.888 10.848 2.12 10.08C1.352 9.312 0.968 8.37333 0.968 7.264C0.968 6.15466 1.352 5.216 2.12 4.448C2.888 3.68 3.82667 3.296 4.936 3.296C6.00267 3.296 6.89867 3.68 7.624 4.448C8.392 5.216 8.776 6.15466 8.776 7.264C8.776 8.37333 8.392 9.312 7.624 10.08C6.89867 10.848 6.00267 11.232 4.936 11.232ZM7.752 16.928V52H1.928V16.928H7.752Z" fill="#F5F5F5"/>
<path d="M50.638 7.072L49.102 15.712H30.798L29.134 25.376H42.83L41.294 33.696H27.598L24.398 52H13.454L21.39 7.072H50.638ZM60.934 12.576C59.2273 12.576 57.862 12.128 56.838 11.232C55.8567 10.2933 55.366 9.12 55.366 7.712C55.366 5.792 56.1127 4.14933 57.606 2.784C59.0993 1.41866 60.9127 0.735996 63.046 0.735996C64.7527 0.735996 66.0967 1.20533 67.078 2.144C68.0593 3.04 68.55 4.21333 68.55 5.664C68.55 7.54133 67.8033 9.16267 66.31 10.528C64.8167 11.8933 63.0247 12.576 60.934 12.576ZM65.67 16.288L59.398 52H48.454L54.726 16.288H65.67ZM95.425 15.904C99.009 15.904 101.825 16.9067 103.873 18.912C105.921 20.9173 106.945 23.712 106.945 27.296C106.945 28.4907 106.817 29.7707 106.561 31.136L102.849 52H91.969L95.425 32.608C95.553 31.8827 95.617 31.2427 95.617 30.688C95.617 28.896 95.105 27.5093 94.081 26.528C93.0997 25.5467 91.713 25.056 89.921 25.056C87.7877 25.056 85.9957 25.7173 84.545 27.04C83.0943 28.3627 82.1557 30.2187 81.729 32.608V32.288L78.273 52H67.329L73.601 16.288H84.545L83.713 21.088C85.121 19.5093 86.8277 18.2507 88.833 17.312C90.881 16.3733 93.0783 15.904 95.425 15.904ZM111.478 34.08C112.118 30.4107 113.377 27.1893 115.254 24.416C117.131 21.6427 119.393 19.5093 122.038 18.016C124.683 16.5227 127.478 15.776 130.422 15.776C132.939 15.776 135.051 16.288 136.758 17.312C138.465 18.336 139.702 19.68 140.47 21.344L141.366 16.288H152.31L145.974 52H135.03L135.99 46.944C134.625 48.608 132.897 49.952 130.806 50.976C128.715 52 126.411 52.512 123.894 52.512C121.377 52.512 119.137 51.936 117.174 50.784C115.254 49.632 113.761 48.0107 112.694 45.92C111.627 43.7867 111.094 41.2907 111.094 38.432C111.094 37.0667 111.222 35.616 111.478 34.08ZM138.23 34.144C138.358 33.376 138.422 32.672 138.422 32.032C138.422 29.9413 137.803 28.2987 136.566 27.104C135.371 25.9093 133.835 25.312 131.958 25.312C129.782 25.312 127.798 26.1013 126.006 27.68C124.214 29.216 123.083 31.3493 122.614 34.08C122.486 34.848 122.422 35.552 122.422 36.192C122.422 38.2827 123.019 39.9467 124.214 41.184C125.451 42.3787 126.987 42.976 128.822 42.976C130.998 42.976 132.982 42.1867 134.774 40.608C136.566 39.0293 137.718 36.8747 138.23 34.144ZM181.988 15.904C185.572 15.904 188.388 16.9067 190.436 18.912C192.484 20.9173 193.508 23.712 193.508 27.296C193.508 28.4907 193.38 29.7707 193.124 31.136L189.412 52H178.532L181.988 32.608C182.116 31.8827 182.18 31.2427 182.18 30.688C182.18 28.896 181.668 27.5093 180.644 26.528C179.662 25.5467 178.276 25.056 176.484 25.056C174.35 25.056 172.558 25.7173 171.108 27.04C169.657 28.3627 168.718 30.2187 168.292 32.608V32.288L164.836 52H153.892L160.164 16.288H171.108L170.276 21.088C171.684 19.5093 173.39 18.2507 175.396 17.312C177.444 16.3733 179.641 15.904 181.988 15.904ZM198.041 34.144C198.681 30.432 200.003 27.1893 202.009 24.416C204.014 21.6427 206.489 19.5093 209.433 18.016C212.419 16.5227 215.662 15.776 219.161 15.776C223.641 15.776 227.182 16.9493 229.785 19.296C232.387 21.6427 233.774 24.9493 233.944 29.216H222.297C221.827 26.4853 220.163 25.12 217.305 25.12C215.299 25.12 213.571 25.9093 212.121 27.488C210.67 29.024 209.689 31.2427 209.177 34.144C209.006 35.04 208.921 35.9787 208.921 36.96C208.921 38.9653 209.39 40.5013 210.329 41.568C211.267 42.6347 212.547 43.168 214.169 43.168C216.985 43.168 219.097 41.8027 220.505 39.072H232.217C230.553 43.2533 227.993 46.5387 224.537 48.928C221.081 51.3173 217.134 52.512 212.697 52.512C208.089 52.512 204.419 51.2533 201.689 48.736C199.001 46.176 197.657 42.6987 197.657 38.304C197.657 36.9813 197.785 35.5947 198.041 34.144ZM258.039 15.776C262.647 15.776 266.295 17.0347 268.983 19.552C271.713 22.0267 273.079 25.4187 273.079 29.728C273.079 31.136 272.972 32.3947 272.759 33.504C272.588 34.4853 272.332 35.5307 271.991 36.64H247.223C247.18 36.896 247.159 37.3013 247.159 37.856C247.159 39.7333 247.671 41.1627 248.695 42.144C249.719 43.1253 251.084 43.616 252.791 43.616C255.521 43.616 257.612 42.464 259.063 40.16H270.711C269.175 43.7867 266.679 46.752 263.223 49.056C259.767 51.36 255.884 52.512 251.575 52.512C246.967 52.512 243.276 51.232 240.503 48.672C237.772 46.112 236.407 42.6347 236.407 38.24C236.407 36.9173 236.535 35.552 236.791 34.144C237.431 30.432 238.753 27.1893 240.759 24.416C242.764 21.6427 245.26 19.5093 248.247 18.016C251.233 16.5227 254.497 15.776 258.039 15.776ZM262.007 31.072C262.092 30.4747 262.135 30.0693 262.135 29.856C262.135 28.1493 261.601 26.848 260.535 25.952C259.468 25.0133 258.06 24.544 256.311 24.544C254.433 24.544 252.769 25.12 251.319 26.272C249.911 27.3813 248.887 28.9813 248.247 31.072H262.007ZM290.052 52.512C287.236 52.512 284.697 52.064 282.436 51.168C280.217 50.272 278.468 49.0347 277.188 47.456C275.908 45.8347 275.268 43.9787 275.268 41.888C275.268 41.5893 275.311 41.056 275.396 40.288H285.956C285.871 41.6107 286.255 42.6773 287.108 43.488C288.004 44.256 289.263 44.64 290.884 44.64C292.249 44.64 293.38 44.384 294.276 43.872C295.172 43.36 295.62 42.6347 295.62 41.696C295.62 40.8 295.129 40.096 294.148 39.584C293.209 39.0293 291.631 38.368 289.412 37.6C287.108 36.832 285.167 36.0853 283.588 35.36C282.052 34.592 280.729 33.504 279.62 32.096C278.511 30.688 277.956 28.9173 277.956 26.784C277.956 24.6933 278.575 22.816 279.812 21.152C281.049 19.4453 282.777 18.1227 284.996 17.184C287.257 16.2453 289.86 15.776 292.804 15.776C295.748 15.776 298.308 16.2667 300.484 17.248C302.66 18.1867 304.345 19.5093 305.54 21.216C306.735 22.9227 307.332 24.8427 307.332 26.976L307.268 27.936H297.348C297.433 26.656 297.049 25.632 296.196 24.864C295.343 24.096 294.127 23.712 292.548 23.712C291.311 23.712 290.287 23.968 289.476 24.48C288.708 24.992 288.324 25.696 288.324 26.592C288.324 27.5307 288.836 28.32 289.86 28.96C290.927 29.5573 292.569 30.24 294.788 31.008C297.092 31.776 298.991 32.544 300.484 33.312C302.02 34.0373 303.321 35.0827 304.388 36.448C305.497 37.7707 306.052 39.4347 306.052 41.44C306.052 43.744 305.348 45.728 303.94 47.392C302.575 49.056 300.676 50.336 298.244 51.232C295.855 52.0853 293.124 52.512 290.052 52.512Z" fill="white"/>
</svg>
