<svg width="295" height="50" viewBox="0 0 295 50" fill="none" xmlns="http://www.w3.org/2000/svg">
<path d="M4.936 8.232C3.82667 8.232 2.888 7.848 2.12 7.08C1.352 6.312 0.968 5.37333 0.968 4.264C0.968 3.15466 1.352 2.216 2.12 1.448C2.888 0.679998 3.82667 0.295998 4.936 0.295998C6.00267 0.295998 6.89867 0.679998 7.624 1.448C8.392 2.216 8.776 3.15466 8.776 4.264C8.776 5.37333 8.392 6.312 7.624 7.08C6.89867 7.848 6.00267 8.232 4.936 8.232ZM7.752 13.928V49H1.928V13.928H7.752Z" fill="#F5F5F5"/>
<path d="M42.894 4.392V9.128H23.502V24.168H39.246V28.904H23.502V49H17.678V4.392H42.894ZM52.936 8.232C51.8267 8.232 50.888 7.848 50.12 7.08C49.352 6.312 48.968 5.37333 48.968 4.264C48.968 3.15466 49.352 2.216 50.12 1.448C50.888 0.679998 51.8267 0.295998 52.936 0.295998C54.0027 0.295998 54.8987 0.679998 55.624 1.448C56.392 2.216 56.776 3.15466 56.776 4.264C56.776 5.37333 56.392 6.312 55.624 7.08C54.8987 7.848 54.0027 8.232 52.936 8.232ZM55.752 13.928V49H49.928V13.928H55.752ZM82.766 13.288C87.0327 13.288 90.4887 14.5893 93.134 17.192C95.7793 19.752 97.102 23.464 97.102 28.328V49H91.342V29.16C91.342 25.6613 90.4673 22.9947 88.718 21.16C86.9687 19.2827 84.5793 18.344 81.55 18.344C78.478 18.344 76.0247 19.304 74.19 21.224C72.398 23.144 71.502 25.9387 71.502 29.608V49H65.678V13.928H71.502V18.92C72.654 17.128 74.2113 15.7413 76.174 14.76C78.1793 13.7787 80.3767 13.288 82.766 13.288ZM104.44 31.336C104.44 27.752 105.165 24.616 106.616 21.928C108.066 19.1973 110.05 17.0853 112.568 15.592C115.128 14.0987 117.965 13.352 121.08 13.352C124.152 13.352 126.818 14.0133 129.08 15.336C131.341 16.6587 133.026 18.3227 134.136 20.328V13.928H140.024V49H134.136V42.472C132.984 44.52 131.256 46.2267 128.952 47.592C126.69 48.9147 124.045 49.576 121.016 49.576C117.901 49.576 115.085 48.808 112.568 47.272C110.05 45.736 108.066 43.5813 106.616 40.808C105.165 38.0347 104.44 34.8773 104.44 31.336ZM134.136 31.4C134.136 28.7547 133.602 26.4507 132.536 24.488C131.469 22.5253 130.018 21.032 128.184 20.008C126.392 18.9413 124.408 18.408 122.232 18.408C120.056 18.408 118.072 18.92 116.28 19.944C114.488 20.968 113.058 22.4613 111.992 24.424C110.925 26.3867 110.392 28.6907 110.392 31.336C110.392 34.024 110.925 36.3707 111.992 38.376C113.058 40.3387 114.488 41.8533 116.28 42.92C118.072 43.944 120.056 44.456 122.232 44.456C124.408 44.456 126.392 43.944 128.184 42.92C130.018 41.8533 131.469 40.3387 132.536 38.376C133.602 36.3707 134.136 34.0453 134.136 31.4ZM166.954 13.288C171.22 13.288 174.676 14.5893 177.322 17.192C179.967 19.752 181.29 23.464 181.29 28.328V49H175.53V29.16C175.53 25.6613 174.655 22.9947 172.906 21.16C171.156 19.2827 168.767 18.344 165.738 18.344C162.666 18.344 160.212 19.304 158.378 21.224C156.586 23.144 155.69 25.9387 155.69 29.608V49H149.866V13.928H155.69V18.92C156.842 17.128 158.399 15.7413 160.362 14.76C162.367 13.7787 164.564 13.288 166.954 13.288ZM188.627 31.4C188.627 27.7733 189.352 24.616 190.803 21.928C192.254 19.1973 194.259 17.0853 196.819 15.592C199.422 14.0987 202.387 13.352 205.715 13.352C210.024 13.352 213.566 14.3973 216.339 16.488C219.155 18.5787 221.011 21.48 221.907 25.192H215.635C215.038 23.0587 213.864 21.3733 212.115 20.136C210.408 18.8987 208.275 18.28 205.715 18.28C202.387 18.28 199.699 19.432 197.651 21.736C195.603 23.9973 194.579 27.2187 194.579 31.4C194.579 35.624 195.603 38.888 197.651 41.192C199.699 43.496 202.387 44.648 205.715 44.648C208.275 44.648 210.408 44.0507 212.115 42.856C213.822 41.6613 214.995 39.9547 215.635 37.736H221.907C220.968 41.32 219.091 44.2 216.275 46.376C213.459 48.5093 209.939 49.576 205.715 49.576C202.387 49.576 199.422 48.8293 196.819 47.336C194.259 45.8427 192.254 43.7307 190.803 41C189.352 38.2693 188.627 35.0693 188.627 31.4ZM261.678 30.12C261.678 31.2293 261.614 32.4027 261.486 33.64H233.454C233.667 37.096 234.841 39.8053 236.974 41.768C239.15 43.688 241.774 44.648 244.846 44.648C247.363 44.648 249.454 44.072 251.118 42.92C252.825 41.7253 254.019 40.1467 254.702 38.184H260.974C260.035 41.5547 258.158 44.3067 255.342 46.44C252.526 48.5307 249.027 49.576 244.846 49.576C241.518 49.576 238.531 48.8293 235.886 47.336C233.283 45.8427 231.235 43.7307 229.742 41C228.249 38.2267 227.502 35.0267 227.502 31.4C227.502 27.7733 228.227 24.5947 229.678 21.864C231.129 19.1333 233.155 17.0427 235.758 15.592C238.403 14.0987 241.433 13.352 244.846 13.352C248.174 13.352 251.118 14.0773 253.678 15.528C256.238 16.9787 258.201 18.984 259.566 21.544C260.974 24.0613 261.678 26.92 261.678 30.12ZM255.662 28.904C255.662 26.6853 255.171 24.7867 254.19 23.208C253.209 21.5867 251.865 20.3707 250.158 19.56C248.494 18.7067 246.638 18.28 244.59 18.28C241.646 18.28 239.129 19.2187 237.038 21.096C234.99 22.9733 233.817 25.576 233.518 28.904H255.662ZM281.782 49.576C279.094 49.576 276.683 49.128 274.55 48.232C272.416 47.2933 270.731 46.0133 269.494 44.392C268.256 42.728 267.574 40.8293 267.446 38.696H273.462C273.632 40.4453 274.443 41.8747 275.894 42.984C277.387 44.0933 279.328 44.648 281.718 44.648C283.936 44.648 285.686 44.1573 286.966 43.176C288.246 42.1947 288.886 40.9573 288.886 39.464C288.886 37.928 288.203 36.7973 286.838 36.072C285.472 35.304 283.36 34.5573 280.502 33.832C277.899 33.1493 275.766 32.4667 274.102 31.784C272.48 31.0587 271.072 30.0133 269.878 28.648C268.726 27.24 268.15 25.4053 268.15 23.144C268.15 21.352 268.683 19.7093 269.75 18.216C270.816 16.7227 272.331 15.5493 274.294 14.696C276.256 13.8 278.496 13.352 281.014 13.352C284.896 13.352 288.032 14.3333 290.422 16.296C292.811 18.2587 294.091 20.9467 294.262 24.36H288.438C288.31 22.5253 287.563 21.0533 286.198 19.944C284.875 18.8347 283.083 18.28 280.822 18.28C278.731 18.28 277.067 18.728 275.83 19.624C274.592 20.52 273.974 21.6933 273.974 23.144C273.974 24.296 274.336 25.256 275.062 26.024C275.83 26.7493 276.768 27.3467 277.878 27.816C279.03 28.2427 280.608 28.7333 282.614 29.288C285.131 29.9707 287.179 30.6533 288.758 31.336C290.336 31.976 291.68 32.9573 292.79 34.28C293.942 35.6027 294.539 37.3307 294.582 39.464C294.582 41.384 294.048 43.112 292.982 44.648C291.915 46.184 290.4 47.4 288.438 48.296C286.518 49.1493 284.299 49.576 281.782 49.576Z" fill="#213128"/>
</svg>
